<?xml version="1.0" encoding="UTF-8"?>
<svg version="1.1" xmlns="http://www.w3.org/2000/svg" width="512" height="512">
<path d="M0 0 C21.85186812 18.30832194 35.30528605 40.41083946 38.10839844 69.33007812 C38.49069418 73.69637161 38.83014719 78.06444929 39.125 82.4375 C40.795625 82.54964844 40.795625 82.54964844 42.5 82.6640625 C62.7265055 84.2932525 77.57152253 90.93436624 91.8359375 105.7421875 C104.57004717 120.73627567 107.18729678 138.47489199 106.125 157.4375 C103.957457 174.83750118 93.81157541 188.42737757 80.6875 199.3125 C67.39613772 208.99182244 53.42127348 211.90679552 37.21479797 211.81845093 C35.86189164 211.82191675 34.50898815 211.82668747 33.15609044 211.83263266 C29.4763749 211.84504505 25.79689564 211.83901744 22.11717975 211.82967401 C18.13420582 211.82284357 14.15127052 211.83338426 10.16830444 211.84161377 C2.38150243 211.85490986 -5.40521254 211.85209215 -13.19201788 211.84337585 C-19.52219754 211.83658487 -25.85235291 211.83568868 -32.18253517 211.8389473 C-33.0854297 211.839407 -33.98832423 211.83986669 -34.91857919 211.84034032 C-36.75308095 211.84129955 -38.58758269 211.84227219 -40.42208443 211.8432581 C-57.59776509 211.85179953 -74.77339761 211.84199671 -91.94907037 211.825857 C-106.6744857 211.81244811 -121.39983008 211.81478903 -136.12524414 211.82861328 C-153.24652565 211.84467936 -170.36776507 211.85098286 -187.48905307 211.84177649 C-189.31567275 211.84082089 -191.14229243 211.83987777 -192.96891212 211.8389473 C-193.86753422 211.83848447 -194.76615632 211.83802164 -195.69200939 211.83754479 C-202.01334359 211.8349585 -208.33465101 211.83931797 -214.65598106 211.84638596 C-222.36108125 211.85481227 -230.06608979 211.85249675 -237.77117952 211.83654372 C-241.69955191 211.82867728 -245.62777166 211.82554163 -249.55614281 211.83549118 C-253.1565601 211.84447205 -256.75668414 211.83944996 -260.35707507 211.82355852 C-262.26677899 211.81865375 -264.17650348 211.82837661 -266.08618563 211.83873022 C-279.66231175 211.74645162 -290.9322423 207.6838412 -301.0234375 198.45703125 C-310.4145806 188.21394901 -313.40767285 176.12669503 -313.1484375 162.58203125 C-312.58085822 150.32288068 -306.30587381 140.43317082 -297.625 132.125 C-286.20543885 122.59265131 -272.35989997 120.83674378 -257.875 121.4375 C-257.80023438 120.8290625 -257.72546875 120.220625 -257.6484375 119.59375 C-254.40182402 97.94966011 -242.96069742 78.42950391 -225.5625 65.125 C-202.85298852 49.60898434 -179.25433814 47.5086624 -152.875 51.4375 C-152.66931396 50.91953857 -152.46362793 50.40157715 -152.25170898 49.86791992 C-141.89756634 24.00122201 -126.16982619 1.77761789 -100.24609375 -10.31640625 C-96.4941024 -11.90394024 -92.74381236 -13.29504619 -88.875 -14.5625 C-87.00521484 -15.18318359 -87.00521484 -15.18318359 -85.09765625 -15.81640625 C-56.6229227 -24.27245307 -23.50793219 -18.04802536 0 0 Z " fill="#000000" transform="translate(391.875,211.5625)"/>
<path d="M0 0 C2.05075037 1.63513414 4.05583929 3.30947542 6.0625 5 C6.95582031 5.74121094 7.84914063 6.48242188 8.76953125 7.24609375 C26.96494309 22.92601086 39.54583127 45.05652115 46.0625 68 C46.0625 68.66 46.0625 69.32 46.0625 70 C44.99515625 70.08636719 43.9278125 70.17273438 42.828125 70.26171875 C7.62736211 73.43778758 -23.60372282 87.97675412 -46.9375 115 C-50.01892709 118.95750052 -52.84159442 123.08469273 -55.59765625 127.2734375 C-56.00411377 127.88823975 -56.41057129 128.50304199 -56.8293457 129.13647461 C-57.98531531 130.97219181 -57.98531531 130.97219181 -58.73901367 132.99047852 C-59.546875 134.90234375 -59.546875 134.90234375 -61.9375 138 C-65.63439683 139.08455989 -69.29115206 139.10797308 -73.125 139.1875 C-75.30650268 139.30320058 -77.4875289 139.42825166 -79.66796875 139.5625 C-81.27357666 139.65917969 -81.27357666 139.65917969 -82.91162109 139.7578125 C-104.41296895 141.47875304 -124.74860225 152.26146263 -140.9375 166 C-141.61296875 166.52980469 -142.2884375 167.05960938 -142.984375 167.60546875 C-147.94300998 171.62196308 -151.66962461 176.27509037 -155.4375 181.3815918 C-157.74416786 184.50692079 -160.10958308 187.33423428 -162.9375 190 C-184.88067989 170.00732499 -198.51216189 139.05103906 -200.06347656 109.60913086 C-201.07218544 76.46538304 -192.6124874 45.57124646 -170.9375 20 C-170.29989746 19.23695557 -170.29989746 19.23695557 -169.64941406 18.45849609 C-128.5798467 -30.2903696 -50.68624932 -39.05048892 0 0 Z " fill="#000000" transform="translate(283.9375,94)"/>
<path d="M0 0 C1.39120471 0.00015906 2.78241534 0.00585033 4.17358398 0.01586914 C4.90463852 0.01728409 5.63569305 0.01869904 6.38890076 0.02015686 C8.73253406 0.02577131 11.07607313 0.03832617 13.41967773 0.05102539 C15.00496282 0.05603853 16.59024939 0.06060176 18.17553711 0.06469727 C22.06945383 0.07574542 25.96329979 0.09301967 29.85717773 0.11352539 C29.22302116 3.85975595 28.15737488 7.1188071 26.69580078 10.62231445 C26.24830978 11.69982971 25.80081879 12.77734497 25.33976746 13.88751221 C24.61168633 15.61587311 24.61168633 15.61587311 23.86889648 17.37915039 C23.36928909 18.56829041 22.8696817 19.75743042 22.35493469 20.98260498 C21.29862953 23.49235925 20.23785468 26.00017603 19.17480469 28.50708008 C17.81282963 31.72180629 16.46955097 34.94400119 15.13037395 38.16827774 C13.84804894 41.24416625 12.544558 44.31097136 11.24389648 47.37915039 C10.52492439 49.11965668 10.52492439 49.11965668 9.79142761 50.89532471 C9.33448013 51.96023132 8.87753265 53.02513794 8.40673828 54.12231445 C8.0100444 55.06431702 7.61335052 56.00631958 7.20463562 56.97686768 C5.85717773 59.11352539 5.85717773 59.11352539 3.87538147 59.98149109 C0.78092242 60.18393583 -1.39759701 59.03668739 -4.22094727 57.80493164 C-5.38110352 57.30541992 -6.54125977 56.8059082 -7.73657227 56.29125977 C-8.94313477 55.75823242 -10.14969727 55.22520508 -11.39282227 54.67602539 C-12.62674361 54.14047375 -13.86111437 53.60595627 -15.09594727 53.07250977 C-18.11615328 51.76296731 -21.13134647 50.44299258 -24.14282227 49.11352539 C-22.15972286 42.81935562 -19.82115682 36.77753628 -17.16625977 30.73852539 C-16.61018539 29.46271606 -16.61018539 29.46271606 -16.0428772 28.16113281 C-15.2665268 26.3822446 -14.48829643 24.60417575 -13.70825195 22.8269043 C-12.50973903 20.09510105 -11.31805063 17.36039381 -10.12719727 14.62524414 C-9.36978183 12.89199766 -8.61198332 11.15891851 -7.85375977 9.42602539 C-7.49647797 8.60634277 -7.13919617 7.78666016 -6.77108765 6.94213867 C-3.77792315 0.13646658 -3.77792315 0.13646658 0 0 Z " fill="#000000" transform="translate(205.142822265625,451.886474609375)"/>
<path d="M0 0 C11.22 0 22.44 0 34 0 C31.99890485 6.00328546 29.94802474 11.71817554 27.41796875 17.48046875 C27.08130692 18.25578445 26.74464508 19.03110016 26.39778137 19.82991028 C25.3312592 22.28401317 24.25955413 24.7358094 23.1875 27.1875 C22.48076008 28.81039027 21.77437738 30.43343616 21.06835938 32.05664062 C20.03123634 34.44082006 18.99381124 36.82486269 17.95480347 39.20822144 C14.93968609 46.12598567 11.96188849 53.0592868 9 60 C4.77968545 59.43093823 1.27086411 58.44043969 -2.6171875 56.71484375 C-3.63554687 56.26689453 -4.65390625 55.81894531 -5.703125 55.35742188 C-6.74984375 54.88884766 -7.7965625 54.42027344 -8.875 53.9375 C-9.94492187 53.46505859 -11.01484375 52.99261719 -12.1171875 52.50585938 C-14.7475638 51.34332699 -17.37497517 50.17455398 -20 49 C-19.40452015 45.5687305 -18.53076972 42.58395426 -17.14233398 39.39331055 C-16.76201523 38.51277512 -16.38169647 37.63223969 -15.98985291 36.72502136 C-15.37419212 35.32006157 -15.37419212 35.32006157 -14.74609375 33.88671875 C-14.32578384 32.91716751 -13.90547394 31.94761627 -13.47242737 30.94868469 C-12.13203254 27.85960912 -10.78486532 24.7735407 -9.4375 21.6875 C-8.52624435 19.59068959 -7.61543182 17.49368654 -6.70507812 15.39648438 C-4.47600629 10.26169446 -2.23779847 5.13102795 0 0 Z " fill="#000000" transform="translate(276,452)"/>
<path d="M0 0 C10.89 0 21.78 0 33 0 C32.21258605 3.93706977 31.35657577 6.87013773 29.83862305 10.50878906 C29.39113205 11.58630432 28.94364105 12.66381958 28.48258972 13.77398682 C27.75450859 15.50234772 27.75450859 15.50234772 27.01171875 17.265625 C26.51211136 18.45476501 26.01250397 19.64390503 25.49775696 20.86907959 C24.4414518 23.37883386 23.38067695 25.88665064 22.31762695 28.39355469 C20.9556519 31.6082809 19.61237324 34.8304758 18.27319622 38.05475235 C16.9908712 41.13064086 15.68738026 44.19744597 14.38671875 47.265625 C13.66774666 49.00613129 13.66774666 49.00613129 12.93424988 50.78179932 C12.4773024 51.84670593 12.02035492 52.91161255 11.54956055 54.00878906 C11.15286667 54.95079163 10.75617279 55.89279419 10.34745789 56.86334229 C9 59 9 59 7.01820374 59.8679657 C3.92374469 60.07041044 1.74522526 58.923162 -1.078125 57.69140625 C-2.23828125 57.19189453 -3.3984375 56.69238281 -4.59375 56.17773438 C-5.8003125 55.64470703 -7.006875 55.11167969 -8.25 54.5625 C-9.48392135 54.02694835 -10.7182921 53.49243088 -11.953125 52.95898438 C-14.97333102 51.64944192 -17.98852421 50.32946719 -21 49 C-18.51509684 40.745227 -15.0318302 32.98502721 -11.52978516 25.12426758 C-10.49859694 22.80935028 -9.47340918 20.49184878 -8.44921875 18.17382812 C-7.78940888 16.6847423 -7.12926417 15.1958048 -6.46875 13.70703125 C-6.0139325 12.68027031 -6.0139325 12.68027031 -5.54992676 11.63276672 C-5.25952515 10.98156357 -4.96912354 10.33036041 -4.66992188 9.65942383 C-4.29377747 8.81411858 -4.29377747 8.81411858 -3.91003418 7.95173645 C-2.66183653 5.27474595 -1.32092964 2.64185928 0 0 Z " fill="#000000" transform="translate(351,452)"/>
<path d="M0 0 C9.36609416 4.44758661 18.17563712 9.57518676 27 15 C22.91836668 23.43518669 18.46112491 31.56354721 13.6875 39.625 C12.44097445 41.7419333 11.19485875 43.85910801 9.94921875 45.9765625 C9.40612061 46.89518066 8.86302246 47.81379883 8.3034668 48.76025391 C7.49447424 50.15034525 6.7192806 51.5614388 6 53 C1.84979622 51.73735777 -1.68170244 50.19097854 -5.3984375 47.9609375 C-6.37167969 47.38085938 -7.34492188 46.80078125 -8.34765625 46.203125 C-9.34667969 45.59984375 -10.34570312 44.9965625 -11.375 44.375 C-12.39722656 43.76398437 -13.41945313 43.15296875 -14.47265625 42.5234375 C-16.98492073 41.02077463 -19.49385721 39.51284285 -22 38 C-18.30819265 30.32779584 -14.18469288 22.96508745 -9.875 15.625 C-8.94494141 14.02591797 -8.94494141 14.02591797 -7.99609375 12.39453125 C-2.99052821 3.83662887 -2.99052821 3.83662887 0 0 Z " fill="#000000" transform="translate(293,18)"/>
<path d="M0 0 C4.37987559 1.32261146 8.11010944 3.03932877 12.0625 5.3359375 C13.18914063 5.98820312 14.31578125 6.64046875 15.4765625 7.3125 C16.05567383 7.65152344 16.63478516 7.99054688 17.23144531 8.33984375 C18.99213248 9.37039505 20.75729085 10.39290147 22.5234375 11.4140625 C27.78926218 14.47474779 32.95782007 17.58563263 38 21 C36.35526763 27.18336092 33.07446913 32.39655866 29.875 37.875 C29.31167969 38.84953125 28.74835938 39.8240625 28.16796875 40.828125 C26.78349637 43.22161962 25.39406459 45.6120838 24 48 C20.42026102 47.31751659 17.65475285 45.83478569 14.4921875 44.05078125 C12.88730469 43.14875977 12.88730469 43.14875977 11.25 42.22851562 C10.13625 41.59623047 9.0225 40.96394531 7.875 40.3125 C6.78445312 39.69955078 5.69390625 39.08660156 4.5703125 38.45507812 C-2.01698281 34.73987509 -8.53896997 30.93062663 -15 27 C-10.50129292 17.62300743 -5.60345631 8.76176804 0 0 Z " fill="#000000" transform="translate(47,84)"/>
<path d="M0 0 C3.96924372 1.32308124 4.36977261 2.89592152 6.3984375 6.50390625 C7.36523438 8.20450195 7.36523438 8.20450195 8.3515625 9.93945312 C9.02642498 11.14692126 9.70090157 12.35460515 10.375 13.5625 C11.69230031 15.89884999 13.0143104 18.23249703 14.3359375 20.56640625 C14.95952148 21.67773926 15.58310547 22.78907227 16.22558594 23.93408203 C17.74535525 26.56001255 19.34967933 29.0721141 21.0390625 31.58984375 C23 35 23 35 22.84570312 37.06079102 C21.77404355 39.51812126 20.75125681 40.13186433 18.4296875 41.4375 C17.6975 41.85773437 16.9653125 42.27796875 16.2109375 42.7109375 C15.05464844 43.34902344 15.05464844 43.34902344 13.875 44 C12.75351563 44.63808594 12.75351563 44.63808594 11.609375 45.2890625 C10.125821 46.13163847 8.6385431 46.96769425 7.14746094 47.796875 C5.10452598 48.94143883 3.08802791 50.12425495 1.0703125 51.3125 C-2 53 -2 53 -4 53 C-4.45850342 52.19369141 -4.91700684 51.38738281 -5.3894043 50.55664062 C-7.11202198 47.5291808 -8.83615493 44.50259414 -10.5612793 41.4765625 C-11.30373834 40.1735171 -12.04561407 38.87013914 -12.78686523 37.56640625 C-13.86023475 35.67878137 -14.93564708 33.79233557 -16.01171875 31.90625 C-16.35814423 31.29700684 -16.7045697 30.68776367 -17.06149292 30.06005859 C-18.96837249 26.72653541 -20.96283438 23.48313582 -23.08203125 20.28125 C-23.71496094 19.1984375 -24.34789063 18.115625 -25 17 C-23.71314896 13.13944687 -22.41953018 12.82693574 -18.90625 10.8984375 C-17.36130859 10.03992188 -17.36130859 10.03992188 -15.78515625 9.1640625 C-14.70105469 8.57367188 -13.61695312 7.98328125 -12.5 7.375 C-10.36393731 6.19648266 -8.22848642 5.01685552 -6.09375 3.8359375 C-5.14177734 3.31563965 -4.18980469 2.7953418 -3.20898438 2.25927734 C-1.09489511 1.18293024 -1.09489511 1.18293024 0 0 Z " fill="#000000" transform="translate(123,18)"/>
<path d="M0 0 C4.53473422 4.25904787 7.28930173 9.14903618 10.375 14.5 C10.94605469 15.45003906 11.51710937 16.40007812 12.10546875 17.37890625 C12.63527344 18.29542969 13.16507813 19.21195312 13.7109375 20.15625 C14.44256104 21.40631836 14.44256104 21.40631836 15.18896484 22.68164062 C16 25 16 25 15.47949219 27.09790039 C13.50952636 29.63057427 11.4378735 30.7503749 8.6171875 32.27734375 C7.53179687 32.87353516 6.44640625 33.46972656 5.328125 34.08398438 C4.18859375 34.69564453 3.0490625 35.30730469 1.875 35.9375 C-0.35775599 37.15314024 -2.58954834 38.37055226 -4.8203125 39.58984375 C-5.88411133 40.16589355 -6.94791016 40.74194336 -8.04394531 41.33544922 C-10.63438263 42.79412131 -13.08801085 44.34859125 -15.5546875 46.00390625 C-19 48 -19 48 -21.01538086 47.9387207 C-23.89417036 46.57705929 -24.67422457 44.74534962 -26.19921875 41.9765625 C-26.76833984 40.955625 -27.33746094 39.9346875 -27.92382812 38.8828125 C-28.50583984 37.80773437 -29.08785156 36.73265625 -29.6875 35.625 C-30.57791992 34.02398437 -30.57791992 34.02398437 -31.48632812 32.390625 C-35.81700174 24.54899479 -35.81700174 24.54899479 -37 21 C-36.30551758 20.61255615 -35.61103516 20.2251123 -34.89550781 19.82592773 C-31.67967817 18.03096541 -28.46483649 16.23424044 -25.25 14.4375 C-24.15816406 13.82841797 -23.06632812 13.21933594 -21.94140625 12.59179688 C-14.57868559 8.4747726 -7.27135484 4.27615519 0 0 Z " fill="#000000" transform="translate(69,257)"/>
<path d="M0 0 C2.80433629 3.65514623 4.95757923 7.75881323 7.25 11.75 C7.91257812 12.86117187 8.57515625 13.97234375 9.2578125 15.1171875 C9.87914062 16.18710938 10.50046875 17.25703125 11.140625 18.359375 C11.71329102 19.34389648 12.28595703 20.32841797 12.87597656 21.34277344 C14 24 14 24 14.02050781 26.1340332 C12.46677408 28.97498701 10.33480062 29.92426629 7.53125 31.49609375 C6.40203125 32.13740234 5.2728125 32.77871094 4.109375 33.43945312 C2.90640816 34.10575438 1.70328211 34.77176827 0.5 35.4375 C-0.67254028 36.09843051 -1.84442315 36.76052875 -3.015625 37.42382812 C-5.28758537 38.70501845 -7.56354158 39.9791529 -9.84375 41.24560547 C-11.82867249 42.34892021 -13.80863874 43.46124777 -15.78125 44.58642578 C-16.585625 45.04388184 -17.39 45.50133789 -18.21875 45.97265625 C-18.90904297 46.368479 -19.59933594 46.76430176 -20.31054688 47.17211914 C-22 48 -22 48 -24 48 C-26.66956764 44.26200819 -28.87871296 40.21829866 -31.1875 36.25 C-31.85458984 35.13882813 -32.52167969 34.02765625 -33.20898438 32.8828125 C-33.83482422 31.81289062 -34.46066406 30.74296875 -35.10546875 29.640625 C-35.68449951 28.65610352 -36.26353027 27.67158203 -36.86010742 26.65722656 C-38 24 -38 24 -37.99316406 21.85009766 C-36.53851752 19.14033573 -34.66947405 18.25878513 -32.00390625 16.7578125 C-30.96943359 16.16613281 -29.93496094 15.57445313 -28.86914062 14.96484375 C-27.77794922 14.35769531 -26.68675781 13.75054687 -25.5625 13.125 C-23.43850058 11.91980204 -21.31479964 10.71407788 -19.19140625 9.5078125 C-18.15387207 8.92547852 -17.11633789 8.34314453 -16.04736328 7.74316406 C-12.31800934 5.60988517 -8.67115204 3.35599872 -5.03881836 1.06201172 C-3 0 -3 0 0 0 Z " fill="#000000" transform="translate(371,84)"/>
<path d="M0 0 C14.19 0 28.38 0 43 0 C43 10.23 43 20.46 43 31 C28.81 31 14.62 31 0 31 C0 20.77 0 10.54 0 0 Z " fill="#000000" transform="translate(14,179)"/>
<path d="M0 0 C10.23 0 20.46 0 31 0 C31 14.19 31 28.38 31 43 C20.77 43 10.54 43 0 43 C0 28.81 0 14.62 0 0 Z " fill="#000000" transform="translate(193,0)"/>
</svg>
